<?xml version="1.0" encoding="iso-8859-1"?>
<!-- Generator: Adobe Illustrator 19.0.0, SVG Export Plug-In . SVG Version: 6.00 Build 0)  -->
<svg version="1.1" id="Capa_1" xmlns="http://www.w3.org/2000/svg" xmlns:xlink="http://www.w3.org/1999/xlink" x="0px" y="0px"
	 viewBox="0 0 511.968 511.968" style="enable-background:new 0 0 511.968 511.968;" xml:space="preserve">
<polygon style="fill:#F6BB42;" points="411.818,398.585 99.994,398.585 99.994,183.989 282.802,99.994 411.537,168.607 
	411.818,183.989 "/>
<g style="opacity:0.5;">
	<rect x="99.994" y="179.984" style="fill:#FFFFFF;" width="15.999" height="218.6"/>
</g>
<g style="opacity:0.2;">
	<rect x="395.974" y="159.994" width="15.999" height="238.59"/>
</g>
<path style="fill:#F6BB42;" d="M411.974,159.99c0-85.526-68.848-154.889-154.131-155.896c9.538,36.768,24.959,95.9,24.959,95.9
	s53.653,41.208,128.734,68.613C411.693,165.736,411.974,162.9,411.974,159.99z"/>
<path id="SVGCleanerId_0" style="fill:#FFCE54;" d="M255.984,4c-86.151,0-155.99,69.839-155.99,155.99
	c0,8.026,0.796,15.851,1.964,23.553C242.387,153.732,355.306,40.931,355.947,40.295C328.87,17.655,294.037,4,255.984,4z"/>
<path style="fill:#F6BB42;" d="M411.974,159.99c0-48.099-21.772-91.08-55.997-119.673c-26.639-22.248-73.175,59.677-73.175,59.677
	s53.653,41.208,128.734,68.613C411.693,165.736,411.974,162.9,411.974,159.99z"/>
<g>
	<path id="SVGCleanerId_0_1_" style="fill:#FFCE54;" d="M255.984,4c-86.151,0-155.99,69.839-155.99,155.99
		c0,8.026,0.796,15.851,1.964,23.553C242.387,153.732,355.306,40.931,355.947,40.295C328.87,17.655,294.037,4,255.984,4z"/>
</g>
<g style="opacity:0.2;">
	<path d="M355.977,40.317c-0.016-0.007-0.022-0.016-0.03-0.022C328.87,17.655,294.037,4,255.984,4c-2.539,0-5.007,0.258-7.515,0.379
		c34.716,1.875,66.442,14.979,91.478,35.916c0.009,0.007,0.016,0.016,0.032,0.022c34.224,28.593,55.996,71.574,55.996,119.673
		c0,0.859-0.093,1.699-0.125,2.547c5.125,2.078,10.336,4.117,15.687,6.07c0.156-2.871,0.438-5.707,0.438-8.617
		C411.974,111.891,390.202,68.91,355.977,40.317z"/>
</g>
<g style="opacity:0.5;">
	<path style="fill:#FFFFFF;" d="M115.993,159.99c0-83.612,65.839-151.663,148.475-155.611C261.648,4.227,258.844,4,255.985,4
		c-86.151,0-155.99,69.839-155.99,155.99c0,8.026,0.796,15.851,1.964,23.553c5.227-1.108,10.402-2.366,15.55-3.698
		C116.633,173.333,115.993,166.744,115.993,159.99z"/>
</g>
<path style="fill:#AC92EC;" d="M475.97,459.97c0,31.999,0,47.998,0,47.998H35.997c0,0,0-15.999,0-47.998
	c0-31.997,15.999-43.996,47.998-55.995c6.558-2.484,14.878-4.961,23.838-7.845c5.121-1.671,10.558-3.437,15.921-5.358l0.239,0.641
	c0,0,23.998,60.559,131.992,60.559c107.993,0,131.992-60.559,131.992-60.559l0.234-0.641c14.726,5.281,29.365,9.358,39.763,13.203
	C459.971,415.974,475.97,427.973,475.97,459.97z"/>
<g style="opacity:0.4;">
	<path style="fill:#FFFFFF;" d="M51.996,467.97c0-31.998,15.999-43.997,47.998-55.996c6.558-2.483,14.878-4.961,23.838-7.844
		c2.09-0.68,4.253-1.39,6.421-2.109c-4.531-6.295-6.261-10.608-6.261-10.608l-0.239-0.641c-5.363,1.922-10.8,3.688-15.921,5.358
		c-8.96,2.884-17.28,5.36-23.838,7.845c-31.999,11.999-47.998,23.998-47.998,55.995c0,31.999,0,47.998,0,47.998h15.999
		C51.996,500.257,51.996,487.016,51.996,467.97z"/>
</g>
<g style="opacity:0.3;">
	<path d="M459.971,467.97c0-31.998-15.999-43.997-47.997-55.996c-6.563-2.483-14.874-4.961-23.842-7.844
		c-2.086-0.68-4.25-1.39-6.422-2.109c4.531-6.295,6.266-10.608,6.266-10.608l0.234-0.641c5.366,1.922,10.804,3.688,15.921,5.358
		c8.968,2.884,17.28,5.36,23.842,7.845c31.998,11.999,47.997,23.998,47.997,55.995c0,31.999,0,47.998,0,47.998h-15.999
		C459.971,500.257,459.971,487.016,459.971,467.97z"/>
</g>
<g>
	<path style="fill:#EAC6BB;" d="M331.979,339.979c0,26.231,28.318,40.716,56.231,50.793l-0.234,0.641
		c0,0-23.999,60.559-131.992,60.559c-107.994,0-131.992-60.559-131.992-60.559l-0.239-0.641
		c27.917-10.077,56.235-24.562,56.235-50.793v-23.038c25.279,24.162,53.598,39.036,75.995,39.036s50.716-14.96,75.995-39.036v23.038
		H331.979z"/>
	<path style="fill:#EAC6BB;" d="M282.779,99.994c0,0,46.091,35.548,113.196,62.625v17.37c0,53.035-29.123,103.759-63.996,136.952
		c-25.279,24.076-53.598,39.036-75.995,39.036s-50.716-14.874-75.995-39.036c-31.358-29.835-58.075-73.835-63.118-120.953v-15.905
		C181.828,163.42,240.063,129.964,282.779,99.994z"/>
</g>
<g style="opacity:0.2;">
	<path d="M331.979,324.941v-8c-25.279,24.076-53.598,39.036-75.995,39.036s-50.716-14.874-75.995-39.036v8
		c25.279,24.162,53.598,39.036,75.995,39.036S306.7,349.017,331.979,324.941z"/>
</g>
<g style="opacity:0.2;">
	<path d="M379.976,155.912v24.077c0,53.035-29.123,103.759-63.995,136.952c-22.366,21.304-47.1,35.42-68.016,38.396
		c2.737,0.391,5.425,0.641,8.019,0.641c22.397,0,50.716-14.96,75.995-39.036c34.873-33.193,63.996-83.917,63.996-136.952v-17.37
		L379.976,155.912z"/>
</g>
<g style="opacity:0.5;">
	<path style="fill:#FFFFFF;" d="M195.988,316.941c-31.358-29.835-58.075-73.835-63.118-120.953l-0.699-20.171l-15.3,4.266v15.905
		c5.043,47.118,31.76,91.118,63.118,120.953c25.279,24.162,53.598,39.036,75.995,39.036c2.578,0,5.258-0.25,7.98-0.641
		C243.055,352.361,218.342,338.306,195.988,316.941z"/>
</g>
<g style="opacity:0.2;">
	<path d="M123.992,391.413c0,0,23.998,60.559,131.992,60.559c107.993,0,131.992-60.559,131.992-60.559l0.234-0.641
		c-1.156-0.414-2.313-0.851-3.461-1.281c-9.406,15.328-41.912,54.481-128.766,54.481c-86.858,0-119.36-39.153-128.766-54.481
		c-1.152,0.431-2.309,0.867-3.465,1.281L123.992,391.413z"/>
</g>
<g style="opacity:0.5;">
	<path style="fill:#FFFFFF;" d="M136.972,402.178c27.018-10.57,59.016-29.562,59.016-54.2v-9.406
		c-5.406-4.155-10.773-8.64-15.999-13.631v15.038c0,25.154-26.022,39.481-52.771,49.512
		C129.254,392.803,132.456,397.272,136.972,402.178z"/>
</g>
<g style="opacity:0.5;">
	<path style="fill:#FFFFFF;" d="M131.745,404.03l0.059,0.093l0.011-0.007C131.793,404.085,131.769,404.06,131.745,404.03z"/>
</g>
<g style="opacity:0.2;">
	<path d="M374.93,402.241c4.522-4.906,7.726-9.359,9.772-12.68c-26.811-10.03-52.958-24.373-52.958-49.582v-15.038
		c-5.233,4.991-10.593,9.476-15.999,13.631v9.406C315.746,372.68,347.877,391.695,374.93,402.241z"/>
</g>
<g>
	<path style="fill:#3A3847;" d="M255.984,359.977c-23.014,0-52.454-15.007-78.757-40.146
		c-35.639-33.912-59.692-80.05-64.332-123.418c-0.234-2.195,1.355-4.168,3.55-4.402c2.266-0.195,4.168,1.359,4.402,3.551
		c4.445,41.54,27.584,85.826,61.899,118.48c24.858,23.757,52.235,37.936,73.238,37.936c20.921,0,48.294-14.179,73.238-37.936
		c39.294-37.403,62.754-87.514,62.754-134.054c0-2.211,1.788-4,3.999-4c2.212,0,4,1.789,4,4c0,48.688-24.389,100.962-65.238,139.851
		C308.348,344.97,278.904,359.977,255.984,359.977z"/>
	<path style="fill:#3A3847;" d="M475.97,511.968H35.997c-2.21,0-4-1.789-4-4V459.97c0-34.271,17.78-47.435,50.591-59.745
		c4.898-1.845,10.78-3.703,17.179-5.727l8.472-2.711c4.598-1.5,9.414-3.077,14.167-4.781c24.939-8.999,53.583-22.498,53.583-47.027
		c0-2.211,1.789-4,4-4s4,1.789,4,4c0,29.513-31.463,44.661-58.875,54.559c-4.835,1.734-9.718,3.328-14.382,4.859l-8.558,2.733
		c-6.242,1.97-11.976,3.773-16.764,5.586c-30.772,11.539-45.412,22.304-45.412,52.254v43.998h431.974V459.97
		c0-29.95-14.641-40.715-45.404-52.246c-4.984-1.844-10.976-3.749-17.49-5.813c-7.008-2.227-14.601-4.64-22.21-7.374
		c-27.42-9.897-58.888-25.046-58.888-54.559c0-2.211,1.789-4,4-4s4,1.789,4,4c0,24.529,28.639,38.028,53.59,47.036
		c7.516,2.695,15.015,5.07,21.929,7.272c6.648,2.109,12.758,4.047,17.866,5.938c32.826,12.311,50.606,25.475,50.606,59.745v47.998
		C479.97,510.179,478.181,511.968,475.97,511.968z"/>
	<path style="fill:#3A3847;" d="M179.989,343.978c-2.211,0-4-1.788-4-3.999v-23.038c0-2.211,1.789-4,4-4s4,1.789,4,4v23.038
		C183.988,342.19,182.2,343.978,179.989,343.978z"/>
	<path style="fill:#3A3847;" d="M331.979,343.978c-2.211,0-4-1.788-4-3.999v-23.038c0-2.211,1.789-4,4-4s4,1.789,4,4v23.038
		C335.979,342.19,334.19,343.978,331.979,343.978z"/>
	<path style="fill:#3A3847;" d="M411.974,163.99c-2.211,0-4-1.789-4-4c0-45.149-19.889-87.679-54.559-116.688
		C326.136,20.538,291.537,8,255.984,8c-83.807,0-151.991,68.183-151.991,151.99c0,2.211-1.789,4-4,4s-4-1.789-4-4
		C95.993,71.772,167.766,0,255.983,0c37.42,0,73.839,13.198,102.557,37.166c36.497,30.533,57.434,75.3,57.434,122.824
		C415.974,162.201,414.185,163.99,411.974,163.99z"/>
	<path style="fill:#3A3847;" d="M99.994,379.976c-2.211,0-4-1.789-4-4V159.99c0-2.211,1.789-4,4-4s4,1.789,4,4v215.986
		C103.993,378.187,102.205,379.976,99.994,379.976z"/>
	<path style="fill:#3A3847;" d="M411.974,379.976c-2.211,0-4-1.789-4-4V159.99c0-2.211,1.789-4,4-4s4,1.789,4,4v215.986
		C415.974,378.187,414.185,379.976,411.974,379.976z"/>
	<path style="fill:#3A3847;" d="M99.99,187.988c-1.86,0-3.523-1.301-3.914-3.191c-0.445-2.163,0.945-4.28,3.109-4.726
		c73.171-15.093,138.979-53.657,181.297-83.351c44.514-31.244,72.387-59.031,72.668-59.309c1.562-1.563,4.094-1.563,5.656-0.008
		c1.562,1.558,1.562,4.093,0,5.655c-0.281,0.282-28.608,28.534-73.73,60.207c-42.935,30.132-109.763,69.271-184.273,84.641
		C100.529,187.961,100.255,187.988,99.99,187.988z"/>
	<path style="fill:#3A3847;" d="M411.818,172.708c-0.461,0-0.922-0.078-1.375-0.242c-74.901-27.33-129.555-68.882-130.093-69.296
		c-1.759-1.344-2.087-3.855-0.743-5.609c1.345-1.75,3.859-2.078,5.609-0.742c0.531,0.41,54.263,41.243,127.969,68.133
		c2.07,0.758,3.148,3.055,2.383,5.128C414.974,171.7,413.443,172.708,411.818,172.708z"/>
	<path style="fill:#3A3847;" d="M255.984,455.971c-109.45,0-134.691-60.504-135.71-63.082c-0.813-2.047,0.188-4.367,2.234-5.179
		c2.059-0.829,4.375,0.18,5.199,2.218c0.234,0.578,24.62,58.044,128.277,58.044c103.658,0,128.039-57.466,128.273-58.044
		c0.828-2.031,3.148-3.038,5.203-2.218c2.047,0.812,3.047,3.132,2.234,5.179C390.678,395.467,365.43,455.971,255.984,455.971z"/>
</g>
<g>
</g>
<g>
</g>
<g>
</g>
<g>
</g>
<g>
</g>
<g>
</g>
<g>
</g>
<g>
</g>
<g>
</g>
<g>
</g>
<g>
</g>
<g>
</g>
<g>
</g>
<g>
</g>
<g>
</g>
</svg>
